<svg xmlns="http://www.w3.org/2000/svg" width="28" height="28" fill="none">
  <symbol id="svg-instagram">
    <path d="M25.1279 9.41152c-.0137-.94006-.1878-1.87267-.5212-2.75188-.5834-1.50137-1.7713-2.68855-3.2752-3.26973-.8694-.32659-1.7887-.50169-2.7191-.52156-1.1966-.0534-1.576-.0683-4.6136-.0683s-3.4269 0-4.61483.0683c-.92919.01987-1.84843.19497-2.71791.52156-1.50386.58118-2.69302 1.76836-3.27516 3.26973-.32715.86803-.50378 1.78574-.52119 2.71338-.05349 1.19588-.06966 1.57468-.06966 4.60718 0 3.0325 0 3.42.06966 4.6071.01866.9289.19404 1.8454.52119 2.7159a5.7294 5.7294 0 0 0 3.27641 3.2685c.86575.3378 1.78498.529 2.7179.5588 1.19789.0534 1.57729.0696 4.61489.0696 3.0375 0 3.4269 0 4.6148-.0696.9292-.0186 1.8484-.1937 2.7191-.5203 1.5039-.5824 2.6918-1.7696 3.2752-3.2697.3271-.8693.5025-1.7858.5212-2.7159.0535-1.1946.0697-1.5734.0697-4.6072-.0025-3.0325-.0025-3.4175-.0722-4.60588ZM13.9913 19.7149c-3.1769 0-5.75047-2.5693-5.75047-5.7409 0-3.1716 2.57357-5.74098 5.75047-5.74098 3.1745 0 5.7506 2.56938 5.7506 5.74098s-2.5761 5.7409-5.7506 5.7409Zm5.9794-10.35554c-.7426 0-1.3409-.59856-1.3409-1.33869 0-.74012.5983-1.33868 1.3409-1.33868.7401 0 1.3397.59856 1.3397 1.33868 0 .74013-.5996 1.33869-1.3397 1.33869Z"/>
    <path d="M13.9931 17.4789c1.935 0 3.5035-1.5685 3.5035-3.5035 0-1.9349-1.5685-3.5035-3.5035-3.5035-1.9349 0-3.5035 1.5686-3.5035 3.5035 0 1.935 1.5686 3.5035 3.5035 3.5035Z"/>
  <symbol>
</svg>
