<svg xmlns="http://www.w3.org/2000/svg" width="16" height="16" fill="none">
  <path fill="#AE1332" d="M14.5.2h-2c-.6 0-1 .4-1 1v2c0 .6.4 1.1 1 1.1h2c.7 0 1.2-.5 1.2-1v-2c0-.7-.5-1.1-1.2-1.1ZM3.4 11.5H1.2c-.7 0-1.2.5-1.2 1.1v2c0 .6.5 1 1.2 1h2.2c.6 0 1.2-.4 1.2-1v-2c0-.6-.6-1-1.2-1Zm-.3-5.7h-2c-.6 0-1.1.5-1.1 1v2C0 9.6.5 10 1.1 10h2c.6 0 1.1-.5 1.1-1.1v-2c0-.6-.5-1.1-1-1.1Zm5.8 5.7h-2c-.6 0-1.1.5-1.1 1v2c0 .7.5 1.1 1 1.1h2c.7 0 1.2-.4 1.2-1v-2c0-.6-.5-1.1-1.1-1.1ZM3.1 0h-2C.5 0 0 .5 0 1.1v2c0 .6.5 1.1 1.1 1.1h2c.6 0 1.1-.5 1.1-1v-2c0-.7-.5-1.2-1-1.2ZM9 5.8H7c-.6 0-1 .5-1 1.1v2c0 .6.4 1.1 1 1.1h2c.7 0 1.2-.5 1.2-1V7c0-.7-.5-1.2-1.2-1.2Zm5.7 5.7h-2c-.7 0-1.2.5-1.2 1v2c0 .7.5 1.1 1.2 1.1h2c.6 0 1-.4 1-1v-2c0-.6-.4-1.1-1-1.1ZM8.8.1h-2c-.6 0-1.1.5-1.1 1.1v2c0 .6.5 1 1 1h2.1c.6 0 1.1-.4 1.1-1v-2c0-.6-.5-1-1.1-1ZM14.5 6h-2c-.6 0-1.1.5-1.1 1v2c0 .6.5 1.1 1.1 1.1h2c.6 0 1.1-.5 1.1-1V7c0-.6-.5-1.1-1-1.1Z"/>
</svg>