<svg xmlns="http://www.w3.org/2000/svg" width="24" height="24" fill="none">
  <symbol id="svg-market">
    <path fill="#AE1332" fill-rule="evenodd" d="M9.612 6.084C9.16 6.711 9 7.494 9 8v1h6V8c0-.507-.16-1.289-.611-1.916C13.974 5.508 13.274 5 12 5c-1.274 0-1.974.508-2.388 1.084ZM17 9V8c0-.827-.24-2.044-.988-3.084C15.226 3.825 13.926 3 12 3c-1.926 0-3.226.825-4.012 1.916C7.24 5.956 7 7.173 7 8v1H3a1.00003 1.00003 0 0 0-1 1 .99997.99997 0 0 0 1 1h.095l.91 9.1A1.00002 1.00002 0 0 0 5 21h14c.2479 0 .487-.0921.6708-.2584a.99972.99972 0 0 0 .3242-.6416l.91-9.1H21c.2652 0 .5196-.1054.7071-.2929A1.0001 1.0001 0 0 0 22 10a.99997.99997 0 0 0-1-1h-4Zm-8 5a.99997.99997 0 0 0-1-1 .99997.99997 0 0 0-1 1v2a.99997.99997 0 0 0 1 1 .99997.99997 0 0 0 1-1v-2Zm4 0c0-.2652-.1054-.5196-.2929-.7071A1.0001 1.0001 0 0 0 12 13c-.2652 0-.5196.1054-.7071.2929A1.0001 1.0001 0 0 0 11 14v2c0 .2652.1054.5196.2929.7071S11.7348 17 12 17c.2652 0 .5196-.1054.7071-.2929A1.0001 1.0001 0 0 0 13 16v-2Zm4 0c0-.2652-.1054-.5196-.2929-.7071A1.0001 1.0001 0 0 0 16 13c-.2652 0-.5196.1054-.7071.2929A1.0001 1.0001 0 0 0 15 14v2c0 .2652.1054.5196.2929.7071S15.7348 17 16 17c.2652 0 .5196-.1054.7071-.2929A1.0001 1.0001 0 0 0 17 16v-2Z" clip-rule="evenodd"/>
  <symbol>
</svg>
