<svg xmlns="http://www.w3.org/2000/svg" width="20" height="14">
<symbol id="svg-menu">
    <path fill="#AE1332" d="M0 .995C0 .445.446 0 .995 0h8.01a.995.995 0 0 1 0 1.99H.995A.995.995 0 0 1 0 .995ZM0 7c0-.55.446-.995.995-.995h18.01A.99497.99497 0 0 1 20 7a.99497.99497 0 0 1-.995.995H.995A.995.995 0 0 1 0 7Zm.995 5.01a.99497.99497 0 0 0-.995.995.99497.99497 0 0 0 .995.995h12.01c.2639 0 .517-.1048.7036-.2914A.99502.99502 0 0 0 14 13.005c0-.2639-.1048-.517-.2914-.7036a.99502.99502 0 0 0-.7036-.2914H.995Z"/>
<symbol>
</svg>
