<svg aria-hidden="true" version="1.1" xmlns="http://www.w3.org/2000/svg" xmlns:xlink="http://www.w3.org/1999/xlink">
<defs>
    <symbol id="svg-facebook" viewBox="0 0 7 17">
        <path d="M13.28 0.96c0.36 0 0.72 0 1.44 0v5.4c-0.36 0-1.080 0-1.8 0s-1.44 0-1.8 0.36c-0.36 0.36-0.36 0.72-0.36 1.56 0 0.72 0 1.2 0 1.92h3.96v4.56h-3.96v19.8h-6.12v-19.92h-3.24v-4.56h3.24v-1.56c0-2.64 0.36-4.56 1.080-5.4 1.080-1.56 3.24-2.28 6.48-2.28 0.36 0.12 0.72 0.12 1.080 0.12z"></path>
    </symbol>
        <symbol id="svg-youtube" viewBox="0 0 21 15">
        <path d="M38.655 1.125c-2.295-0.135-7.020-0.27-14.175-0.27h-0.945c-6.885 0-11.475 0.135-13.77 0.405-3.105 0.27-5.265 1.080-6.48 2.16-1.080 0.945-1.89 2.7-2.16 4.995-0.135 1.485-0.27 4.59-0.27 9.315v0.675c0 4.455 0.135 7.56 0.405 9.045 0.405 2.16 1.080 3.78 2.43 4.725 1.35 1.080 3.645 1.755 6.885 2.025 2.295 0.135 7.020 0.27 14.175 0.27h0.945c6.885 0 11.475-0.135 13.77-0.405 3.105-0.27 5.265-1.080 6.48-2.16 1.080-0.945 1.89-2.7 2.16-4.995 0.135-1.485 0.27-4.59 0.27-9.315v-0.675c0-4.455-0.135-7.56-0.405-9.045-0.405-2.16-1.080-3.78-2.43-4.725-1.35-1.080-3.645-1.755-6.885-2.025zM33.39 17.73l-14.85 8.91v-17.82l14.85 8.91z"></path>
    </symbol>
    <symbol id="svg-instagram" viewBox="0 0 19 19">
        <path d="M32.307 12.1c-0.018-1.209-0.241-2.408-0.67-3.538-0.75-1.93-2.277-3.457-4.211-4.204-1.118-0.42-2.3-0.645-3.496-0.671-1.538-0.069-2.026-0.088-5.932-0.088s-4.406 0-5.933 0.088c-1.195 0.026-2.377 0.251-3.494 0.671-1.934 0.747-3.462 2.274-4.211 4.204-0.421 1.116-0.648 2.296-0.67 3.489-0.069 1.538-0.090 2.025-0.090 5.924s0 4.397 0.090 5.924c0.024 1.194 0.25 2.373 0.67 3.492 0.75 1.929 2.277 3.455 4.213 4.202 1.113 0.434 2.295 0.68 3.494 0.718 1.54 0.069 2.028 0.089 5.933 0.089s4.406 0 5.933-0.089c1.195-0.024 2.376-0.249 3.496-0.669 1.933-0.749 3.461-2.275 4.211-4.204 0.421-1.118 0.646-2.296 0.67-3.492 0.069-1.536 0.090-2.023 0.090-5.924-0.003-3.899-0.003-4.394-0.093-5.922zM17.989 25.348c-4.085 0-7.393-3.303-7.393-7.381s3.309-7.381 7.393-7.381c4.081 0 7.393 3.303 7.393 7.381s-3.312 7.381-7.393 7.381zM25.676 12.033c-0.955 0-1.724-0.77-1.724-1.721s0.769-1.721 1.724-1.721c0.952 0 1.722 0.77 1.722 1.721s-0.771 1.721-1.722 1.721z"></path>
        <path d="M17.991 22.473c2.488 0 4.505-2.017 4.505-4.505s-2.017-4.505-4.505-4.505c-2.488 0-4.505 2.017-4.505 4.505s2.017 4.505 4.505 4.505z"></path>
    </symbol>
</defs>
</svg>
