<svg xmlns="http://www.w3.org/2000/svg" width="26" height="18" fill="none">
  <symbol id="svg-youtube">
    <path fill="#AE1332" fill-rule="evenodd" d="M20.21.24986c-1.19-.07-3.64-.14-7.35-.14h-.49c-3.57002 0-5.94999.07-7.13999.21-1.61.14-2.73003.56-3.36003 1.12-.56.49-.97999 1.4-1.11999 2.59-.07.77-.14 2.38-.14 4.83v.35c0 2.31004.06999 3.92004.20999 4.69004.21 1.12.56003 1.96 1.26003 2.45.7.56 1.88998.91 3.56998 1.05 1.19.07 3.64.14 7.35001.14h.49c3.57 0 5.95-.07 7.14-.21 1.61-.14 2.73-.56 3.36-1.12.56-.49.98-1.4 1.12-2.59.07-.77.14-2.38.14-4.83004v-.35c0-2.31-.07-3.92-.21-4.69-.21-1.12-.56-1.96-1.26-2.45-.7-.56-1.89-.91-3.57-1.05Zm-2.73 8.61L9.78001 13.4799V4.23986l7.69999 4.62Z" clip-rule="evenodd"/>
  <symbol>
</svg>